#N canvas 317 362 450 300 10;
#X obj 28 23 r playchord;
#X obj 120 24 r endchord;
#X obj 207 24 r shift;
#X obj 29 71 print play;
#X obj 126 65 print end;
#X obj 217 59 print shift;
#X connect 0 0 3 0;
#X connect 1 0 4 0;
#X connect 2 0 5 0;
