#N canvas 200 253 450 300 10;
#X obj 162 136 dac~;
#X msg 323 37 \; pd dsp 1;
#X obj 322 15 loadbang;
#X obj 299 142 metro 1000;
#X obj 299 269 print PD_RUNS;
#X obj 203 238 realtime;
#X obj 225 172 tgl 15 0 empty empty empty 17 7 0 10 -262144 -1 -1 0
1;
#X obj 245 209 sel 1;
#X obj 202 208 sel 0;
#X obj 184 64 osc~ 330;
#X connect 2 0 1 0;
#X connect 2 0 3 0;
#X connect 3 0 6 0;
#X connect 5 0 4 0;
#X connect 6 0 7 0;
#X connect 6 0 8 0;
#X connect 7 0 5 1;
#X connect 8 0 5 0;
#X connect 9 0 0 0;
#X connect 9 0 0 1;
