#N canvas 591 394 450 300 10;
#X obj 165 66 osc~ 300;
#X obj 191 127 dac~;
#X msg 323 37 \; pd dsp 1;
#X obj 322 15 loadbang;
#X obj 299 142 metro 1000;
#X obj 203 238 realtime;
#X obj 225 172 tgl 15 0 empty empty empty 17 7 0 10 -262144 -1 -1 0
1;
#X obj 245 209 sel 1;
#X obj 202 208 sel 0;
#X obj 332 237 send spam;
#X obj 203 268 send eggs;
#X obj 334 178 bng 15 250 50 0 empty empty empty 17 7 0 10 -262144
-1 -1;
#X obj 323 212 symbol hello;
#X obj 61 144 r foo;
#X obj 118 143 r bar;
#X obj 312 268 print print;
#X obj 48 210 print foo;
#X obj 232 73 adc~;
#X connect 0 0 1 0;
#X connect 3 0 2 0;
#X connect 3 0 4 0;
#X connect 4 0 6 0;
#X connect 5 0 10 0;
#X connect 6 0 7 0;
#X connect 6 0 8 0;
#X connect 6 0 11 0;
#X connect 7 0 5 1;
#X connect 8 0 5 0;
#X connect 11 0 12 0;
#X connect 11 0 9 0;
#X connect 11 0 15 0;
#X connect 12 0 9 0;
#X connect 13 0 10 0;
#X connect 13 0 16 0;
#X connect 14 0 9 0;
#X connect 17 0 1 1;
