#N canvas 444 430 605 405 10;
#X obj 29 16 loadbang;
#X obj 29 59 tgl 15 0 empty empty empty 17 7 0 10 -262144 -1 -1 1 1
;
#X obj 29 103 realtime;
#X obj 29 126 print PD_RUNS;
#X obj 29 80 sel 0;
#X obj 74 81 sel 1;
#X obj 29 38 metro 5000;
#X obj 163 43 receive #touch;
#X obj 163 66 route xy up down;
#X obj 348 335 dac~;
#X obj 240 255 line~;
#X obj 226 276 *~;
#X obj 206 253 osc~;
#X obj 240 187 bng 15 250 50 0 empty empty empty 17 7 0 10 -262144
-1 -1;
#X obj 369 242 line~;
#X obj 355 263 *~;
#X obj 368 198 bng 15 250 50 0 empty empty empty 17 7 0 10 -262144
-1 -1;
#X obj 473 254 line~;
#X obj 459 275 *~;
#X obj 472 210 bng 15 250 50 0 empty empty empty 17 7 0 10 -262144
-1 -1;
#X obj 418 247 osc~ 500;
#X obj 312 241 osc~ 300;
#X obj 56 172 unpack float float float;
#X obj 253 209 delay 100;
#X msg 271 234 0 100;
#X obj 122 271 line~;
#X obj 108 292 *~;
#X obj 88 269 osc~;
#X obj 122 203 bng 15 250 50 0 empty empty empty 17 7 0 10 -262144
-1 -1;
#X obj 135 225 delay 100;
#X msg 153 250 0 100;
#X msg 474 230 0.3 \, 0 100;
#X msg 370 218 0.3 \, 0 100;
#X msg 239 233 0.3;
#X msg 121 249 0.3;
#X obj 79 240 + 200;
#X obj 201 225 + 200;
#X connect 0 0 6 0;
#X connect 1 0 4 0;
#X connect 1 0 5 0;
#X connect 2 0 3 0;
#X connect 4 0 2 0;
#X connect 5 0 2 1;
#X connect 6 0 1 0;
#X connect 7 0 8 0;
#X connect 8 0 22 0;
#X connect 8 1 16 0;
#X connect 8 2 19 0;
#X connect 10 0 11 1;
#X connect 11 0 9 1;
#X connect 12 0 11 0;
#X connect 13 0 33 0;
#X connect 13 0 23 0;
#X connect 14 0 15 1;
#X connect 15 0 9 0;
#X connect 16 0 32 0;
#X connect 17 0 18 1;
#X connect 18 0 9 1;
#X connect 19 0 31 0;
#X connect 20 0 18 0;
#X connect 21 0 15 0;
#X connect 22 1 28 0;
#X connect 22 1 35 0;
#X connect 22 2 13 0;
#X connect 22 2 36 0;
#X connect 23 0 24 0;
#X connect 24 0 10 0;
#X connect 25 0 26 1;
#X connect 26 0 9 0;
#X connect 27 0 26 0;
#X connect 28 0 34 0;
#X connect 28 0 29 0;
#X connect 29 0 30 0;
#X connect 30 0 25 0;
#X connect 31 0 17 0;
#X connect 32 0 14 0;
#X connect 33 0 10 0;
#X connect 34 0 25 0;
#X connect 35 0 27 0;
#X connect 36 0 12 0;
