#N canvas 3 105 319 173 10;
#X obj 78 116 dac~;
#X obj 157 81 *~ 1;
#X obj 158 37 *~ 0.2;
#X obj 14 83 *~ 1;
#X obj 15 20 osc~ 440;
#X obj 15 39 *~ 0.2;
#X obj 158 18 osc~ 660;
#X obj 90 19 adc~ 1;
#X obj 89 65 *~ 1;
#X obj 254 62 s android;
#X obj 35 63 r left;
#X obj 110 44 r mic;
#X obj 178 60 r right;
#X obj 254 39 r test;
#X connect 1 0 0 1;
#X connect 2 0 1 0;
#X connect 3 0 0 0;
#X connect 4 0 5 0;
#X connect 5 0 3 0;
#X connect 6 0 2 0;
#X connect 7 0 8 0;
#X connect 8 0 0 0;
#X connect 8 0 0 1;
#X connect 10 0 3 1;
#X connect 11 0 8 1;
#X connect 12 0 1 1;
#X connect 13 0 9 0;
