#N canvas 461 160 618 519 10;
#X obj 19 103 readsf~ 2;
#X msg 19 79 open \$1 \, 1;
#X obj 19 57 symbol;
#X obj 20 7 r #transport;
#X obj 19 132 soundoutput;
#X obj 19 30 route playback loop;
#X obj 112 103 spigot;
#X obj 150 175 rjdj;
#X msg 150 152 playback 0;
#X obj 150 130 spigot 1;
#X obj 203 79 - 1;
#X obj 204 102 * -1;
#X connect 0 0 4 0;
#X connect 0 1 4 1;
#X connect 0 2 6 0;
#X connect 0 2 9 0;
#X connect 1 0 0 0;
#X connect 2 0 1 0;
#X connect 3 0 5 0;
#X connect 5 0 2 0;
#X connect 5 1 6 1;
#X connect 5 1 10 0;
#X connect 6 0 2 0;
#X connect 8 0 7 0;
#X connect 9 0 8 0;
#X connect 10 0 11 0;
#X connect 11 0 9 1;
