#N canvas 512 221 504 404 10;
#X obj 184 376 writesf~ 2;
#X obj 144 16 r #transport;
#X msg 155 283 stop;
#X obj 199 323 catch~ rec1;
#X obj 286 323 catch~ rec2;
#X obj 77 115 route record scene;
#X obj 76 141 sel 1;
#X obj 53 208 symbol;
#X msg 29 271 open \$1;
#X msg 98 283 start;
#X connect 1 0 5 0;
#X connect 2 0 0 0;
#X connect 3 0 0 0;
#X connect 4 0 0 1;
#X connect 5 0 6 0;
#X connect 5 1 7 0;
#X connect 6 0 9 0;
#X connect 6 1 2 0;
#X connect 7 0 8 0;
#X connect 8 0 0 0;
#X connect 9 0 0 0;
