#N canvas 204 67 664 561 10;
#N canvas 280 99 622 434 zcr_analysis 0;
#X obj 134 283 hsl 128 15 0 1 0 0 empty empty 0...1 50 8 1 10 -262144
-1 -1 6238 1;
#X obj 131 228 rj_zcr~;
#X text 206 227 raw zcr per block;
#X obj 131 105 noise~;
#X obj 184 125 mtof;
#X obj 131 170 bp~ 5000 10;
#X floatatom 184 105 5 0 0 0 - - -;
#X floatatom 89 283 5 0 0 0 - - -;
#X obj 341 90 block~ 1024 2;
#X text 279 283 Never is bigger than ~0.5 of course! \; );
#X connect 1 0 0 0;
#X connect 1 0 7 0;
#X connect 3 0 5 0;
#X connect 4 0 5 1;
#X connect 5 0 1 0;
#X connect 6 0 4 0;
#X restore 410 169 pd zcr_analysis;
#X obj 55 37 rj_zcr~;
#X text 128 70 [rj_zcr] counts the number of zero crossings per sample
block and returns this number divided by block size. Currently the
blocksize is hardcoded to 1024 and [rj_zcr] needs to be used in a reblocked
subpatch with [block~ 1024] inside.;
#X obj 132 243 noise~;
#X obj 169 289 mtof;
#X obj 132 318 bp~ 5000 10;
#X floatatom 169 269 5 0 0 0 - - -;
#X obj 131 402 ftom;
#X floatatom 131 462 5 0 0 0 - - -;
#X obj 131 427 int;
#X text 170 404 convert to midi;
#X text 130 215 A fast and cheap pitch detector;
#X text 127 168 Check out this subpatch for basic use:;
#X text 127 39 Zero crossings rate in a block.;
#X text 239 355 a very fast pitch detector ("cheap fiddle~");
#N canvas 0 0 665 523 cheapple 0;
#X obj 85 33 block~ 1024 2;
#X obj 88 203 rj_zcr~;
#X obj 275 203 samplerate~;
#X obj 275 260 /;
#X text 150 203 zcr per block;
#X obj 290 163 bng 15 250 50 0 empty empty empty 17 7 0 10 -262144
-1 -1;
#X obj 88 299 /;
#X obj 88 372 * 1000;
#X obj 88 168 lop~ 500 1;
#X text 235 38 very cheap pitch detector;
#X obj 275 231 swap 1024;
#X obj 275 143 loadbang;
#X floatatom 291 286 5 0 0 0 - - -;
#X text 313 260 duration of block in milliseconds;
#X text 144 372 convert to Hertz;
#X obj 88 101 inlet~;
#X text 82 82 Test signal;
#X obj 88 409 outlet;
#X text 102 147 filter it a bit;
#X connect 1 0 6 0;
#X connect 2 0 10 0;
#X connect 3 0 6 1;
#X connect 3 0 12 0;
#X connect 5 0 2 0;
#X connect 6 0 7 0;
#X connect 7 0 17 0;
#X connect 8 0 1 0;
#X connect 10 0 3 0;
#X connect 10 1 3 1;
#X connect 11 0 2 0;
#X connect 15 0 8 0;
#X restore 131 356 pd cheapple;
#X connect 3 0 5 0;
#X connect 4 0 5 1;
#X connect 5 0 15 0;
#X connect 6 0 4 0;
#X connect 7 0 9 0;
#X connect 9 0 8 0;
#X connect 15 0 7 0;
